<?xml version="1.0" encoding="UTF-8" standalone="no"?>
<svg xmlns="http://www.w3.org/2000/svg" xmlns:xlink="http://www.w3.org/1999/xlink" contentStyleType="text/css" height="359px" preserveAspectRatio="none" style="width:1915px;height:359px;background:#FFFFFF;" version="1.1" viewBox="0 0 1915 359" width="1915px" zoomAndPan="magnify"><defs/><g><!--MD5=[204a995c784cbe6b3a7450752a2139a2]
class Primitive--><g id="elem_Primitive"><rect codeLine="1" fill="#F1F1F1" height="64.2969" id="Primitive" rx="2.5" ry="2.5" style="stroke:#181818;stroke-width:0.5;" width="352" x="705" y="288"/><ellipse cx="780.25" cy="304" fill="#B4A7E5" rx="11" ry="11" style="stroke:#181818;stroke-width:1.0;"/><path d="M781.2031,300.7813 L782.9219,300.7813 C783.3125,300.7813 783.5,300.75 783.625,300.6719 C783.8906,300.5156 784.0313,300.2344 784.0313,299.9375 C784.0313,299.6719 783.9219,299.4063 783.6875,299.2344 C783.5156,299.125 783.375,299.0938 782.9219,299.0938 L777.7813,299.0938 C777.3438,299.0938 777.2188,299.1094 777.0625,299.2031 C776.8125,299.3594 776.6563,299.6563 776.6563,299.9375 C776.6563,300.2188 776.7969,300.4688 777.0156,300.6406 C777.1719,300.75 777.3594,300.7813 777.7813,300.7813 L779.5,300.7813 L779.5,307.2969 L777.7813,307.2969 C777.3438,307.2969 777.2188,307.3125 777.0625,307.4219 C776.8125,307.5781 776.6563,307.8594 776.6563,308.1563 C776.6563,308.4063 776.7969,308.6719 777.0156,308.8281 C777.1719,308.9531 777.375,309 777.7813,309 L782.9219,309 C783.6719,309 784.0313,308.7188 784.0313,308.1563 C784.0313,307.875 783.9219,307.625 783.6875,307.4531 C783.5156,307.3281 783.375,307.2969 782.9219,307.2969 L781.2031,307.2969 L781.2031,300.7813 Z " fill="#000000"/><text fill="#000000" font-family="sans-serif" font-size="14" font-style="italic" lengthAdjust="spacing" textLength="62" x="800.75" y="308.8467">Primitive</text><rect fill="#FFFFFF" height="15.9688" style="stroke:#000000;stroke-width:1.0;stroke-dasharray:2.0,2.0;" width="129" x="931" y="285"/><text fill="#000000" font-family="sans-serif" font-size="12" font-style="italic" lengthAdjust="spacing" textLength="127" x="932" y="297.1387">C : ExecutionContext</text><line style="stroke:#181818;stroke-width:0.5;" x1="706" x2="1056" y1="320" y2="320"/><line style="stroke:#181818;stroke-width:0.5;" x1="706" x2="1056" y1="328" y2="328"/><ellipse cx="716" cy="339" fill="#84BE84" rx="3" ry="3" style="stroke:#038048;stroke-width:1.0;"/><text fill="#000000" font-family="sans-serif" font-size="14" lengthAdjust="spacing" textLength="159" x="725" y="344.9951">solve(Request&lt;C&gt;) -&gt;</text><text fill="#000000" font-family="sans-serif" font-size="14" font-style="italic" lengthAdjust="spacing" textLength="71" x="888" y="344.9951">Sequence</text><text fill="#000000" font-family="sans-serif" font-size="14" lengthAdjust="spacing" textLength="92" x="959" y="344.9951">&lt;Response&gt;</text></g><!--MD5=[d7a82913f67a02aa3d45e8bb53e90185]
class PrimitiveWrapper--><g id="elem_PrimitiveWrapper"><rect codeLine="5" fill="#F1F1F1" height="96.8906" id="PrimitiveWrapper" rx="2.5" ry="2.5" style="stroke:#181818;stroke-width:0.5;" width="478" x="642" y="131"/><ellipse cx="749.25" cy="147" fill="#A9DCDF" rx="11" ry="11" style="stroke:#181818;stroke-width:1.0;"/><path d="M751.3281,148.8125 L751.7188,149.7969 L751.3281,149.7969 C750.875,149.7969 750.7656,149.8125 750.6094,149.9219 C750.3594,150.0781 750.2031,150.3594 750.2031,150.6563 C750.2031,150.9219 750.3438,151.1719 750.5625,151.3281 C750.7031,151.4531 750.9063,151.5 751.3281,151.5 L753.6875,151.5 C754.0469,151.5 754.2656,151.4688 754.4063,151.375 C754.6563,151.2344 754.8125,150.9375 754.8125,150.6563 C754.8125,150.375 754.6719,150.125 754.4531,149.9688 C754.2813,149.8281 754.125,149.7969 753.6563,149.7969 L750.2656,141.5938 L746.5938,141.5938 C746.1406,141.5938 746.0156,141.6094 745.8594,141.7031 C745.6094,141.875 745.4531,142.1563 745.4531,142.4375 C745.4531,142.7188 745.5938,142.9688 745.8125,143.1406 C745.9844,143.25 746.1563,143.2813 746.5938,143.2813 L747.6719,143.2813 L745.0313,149.7969 C744.6094,149.7969 744.4531,149.8125 744.2969,149.9219 C744.0469,150.0781 743.8906,150.3594 743.8906,150.6563 C743.8906,151.2188 744.2656,151.5 745.0156,151.5 L747.2813,151.5 C747.6406,151.5 747.8594,151.4688 747.9844,151.375 C748.25,151.2344 748.3906,150.9375 748.3906,150.6563 C748.3906,150.375 748.2656,150.125 748.0469,149.9531 C747.875,149.8281 747.7344,149.7969 747.2813,149.7969 L746.8906,149.7969 L747.2813,148.8125 L751.3281,148.8125 Z M750.625,147.1094 L747.9531,147.1094 L749.2969,143.8438 L750.625,147.1094 Z " fill="#000000"/><text fill="#000000" font-family="sans-serif" font-size="14" font-style="italic" lengthAdjust="spacing" textLength="124" x="769.75" y="151.8467">PrimitiveWrapper</text><rect fill="#FFFFFF" height="15.9688" style="stroke:#000000;stroke-width:1.0;stroke-dasharray:2.0,2.0;" width="129" x="994" y="128"/><text fill="#000000" font-family="sans-serif" font-size="12" font-style="italic" lengthAdjust="spacing" textLength="127" x="995" y="140.1387">C : ExecutionContext</text><line style="stroke:#181818;stroke-width:0.5;" x1="643" x2="1119" y1="163" y2="163"/><ellipse cx="653" cy="174" fill="none" rx="3" ry="3" style="stroke:#038048;stroke-width:1.0;"/><text fill="#000000" font-family="sans-serif" font-size="14" lengthAdjust="spacing" textLength="145" x="662" y="179.9951">signature: Signature</text><ellipse cx="653" cy="190.2969" fill="none" rx="3" ry="3" style="stroke:#038048;stroke-width:1.0;"/><text fill="#000000" font-family="sans-serif" font-size="14" lengthAdjust="spacing" textLength="309" x="662" y="196.292">descriptionPair: Pair&lt;Signature, Primitive&gt;</text><line style="stroke:#181818;stroke-width:0.5;" x1="643" x2="1119" y1="203.5938" y2="203.5938"/><ellipse cx="653" cy="214.5938" fill="#84BE84" rx="3" ry="3" style="stroke:#038048;stroke-width:1.0;"/><text fill="#000000" font-family="sans-serif" font-size="14" lengthAdjust="spacing" textLength="452" x="662" y="220.5889">wrappedImplementation(Request&lt;C&gt;): Sequence&lt;Response&gt;</text></g><!--MD5=[039bd50a44dc6194fb4d2e76fa0c2d20]
class PredicateWitoutArguments--><g id="elem_PredicateWitoutArguments"><rect codeLine="13" fill="#F1F1F1" height="64.2969" id="PredicateWitoutArguments" rx="2.5" ry="2.5" style="stroke:#181818;stroke-width:0.5;" width="386" x="7" y="7"/><ellipse cx="100.25" cy="23" fill="#A9DCDF" rx="11" ry="11" style="stroke:#181818;stroke-width:1.0;"/><path d="M102.3281,24.8125 L102.7188,25.7969 L102.3281,25.7969 C101.875,25.7969 101.7656,25.8125 101.6094,25.9219 C101.3594,26.0781 101.2031,26.3594 101.2031,26.6563 C101.2031,26.9219 101.3438,27.1719 101.5625,27.3281 C101.7031,27.4531 101.9063,27.5 102.3281,27.5 L104.6875,27.5 C105.0469,27.5 105.2656,27.4688 105.4063,27.375 C105.6563,27.2344 105.8125,26.9375 105.8125,26.6563 C105.8125,26.375 105.6719,26.125 105.4531,25.9688 C105.2813,25.8281 105.125,25.7969 104.6563,25.7969 L101.2656,17.5938 L97.5938,17.5938 C97.1406,17.5938 97.0156,17.6094 96.8594,17.7031 C96.6094,17.875 96.4531,18.1563 96.4531,18.4375 C96.4531,18.7188 96.5938,18.9688 96.8125,19.1406 C96.9844,19.25 97.1563,19.2813 97.5938,19.2813 L98.6719,19.2813 L96.0313,25.7969 C95.6094,25.7969 95.4531,25.8125 95.2969,25.9219 C95.0469,26.0781 94.8906,26.3594 94.8906,26.6563 C94.8906,27.2188 95.2656,27.5 96.0156,27.5 L98.2813,27.5 C98.6406,27.5 98.8594,27.4688 98.9844,27.375 C99.25,27.2344 99.3906,26.9375 99.3906,26.6563 C99.3906,26.375 99.2656,26.125 99.0469,25.9531 C98.875,25.8281 98.7344,25.7969 98.2813,25.7969 L97.8906,25.7969 L98.2813,24.8125 L102.3281,24.8125 Z M101.625,23.1094 L98.9531,23.1094 L100.2969,19.8438 L101.625,23.1094 Z " fill="#000000"/><text fill="#000000" font-family="sans-serif" font-size="14" font-style="italic" lengthAdjust="spacing" textLength="191" x="120.75" y="27.8467">PredicateWitoutArguments</text><line style="stroke:#181818;stroke-width:0.5;" x1="8" x2="392" y1="39" y2="39"/><line style="stroke:#181818;stroke-width:0.5;" x1="8" x2="392" y1="47" y2="47"/><ellipse cx="18" cy="58" fill="#84BE84" rx="3" ry="3" style="stroke:#038048;stroke-width:1.0;"/><text fill="#000000" font-family="sans-serif" font-size="14" font-style="italic" lengthAdjust="spacing" textLength="91" x="27" y="63.9951">Request&lt;E&gt;</text><text fill="#000000" font-family="sans-serif" font-size="14" lengthAdjust="spacing" textLength="269" x="118" y="63.9951">.computeAll(): Sequence&lt;Response&gt;</text></g><!--MD5=[8e1e58185eca2dd70554585cd90beb2c]
class UnaryPredicate--><g id="elem_UnaryPredicate"><rect codeLine="19" fill="#F1F1F1" height="64.2969" id="UnaryPredicate" rx="2.5" ry="2.5" style="stroke:#181818;stroke-width:0.5;" width="424" x="428" y="7"/><ellipse cx="581.25" cy="23" fill="#A9DCDF" rx="11" ry="11" style="stroke:#181818;stroke-width:1.0;"/><path d="M583.3281,24.8125 L583.7188,25.7969 L583.3281,25.7969 C582.875,25.7969 582.7656,25.8125 582.6094,25.9219 C582.3594,26.0781 582.2031,26.3594 582.2031,26.6563 C582.2031,26.9219 582.3438,27.1719 582.5625,27.3281 C582.7031,27.4531 582.9063,27.5 583.3281,27.5 L585.6875,27.5 C586.0469,27.5 586.2656,27.4688 586.4063,27.375 C586.6563,27.2344 586.8125,26.9375 586.8125,26.6563 C586.8125,26.375 586.6719,26.125 586.4531,25.9688 C586.2813,25.8281 586.125,25.7969 585.6563,25.7969 L582.2656,17.5938 L578.5938,17.5938 C578.1406,17.5938 578.0156,17.6094 577.8594,17.7031 C577.6094,17.875 577.4531,18.1563 577.4531,18.4375 C577.4531,18.7188 577.5938,18.9688 577.8125,19.1406 C577.9844,19.25 578.1563,19.2813 578.5938,19.2813 L579.6719,19.2813 L577.0313,25.7969 C576.6094,25.7969 576.4531,25.8125 576.2969,25.9219 C576.0469,26.0781 575.8906,26.3594 575.8906,26.6563 C575.8906,27.2188 576.2656,27.5 577.0156,27.5 L579.2813,27.5 C579.6406,27.5 579.8594,27.4688 579.9844,27.375 C580.25,27.2344 580.3906,26.9375 580.3906,26.6563 C580.3906,26.375 580.2656,26.125 580.0469,25.9531 C579.875,25.8281 579.7344,25.7969 579.2813,25.7969 L578.8906,25.7969 L579.2813,24.8125 L583.3281,24.8125 Z M582.625,23.1094 L579.9531,23.1094 L581.2969,19.8438 L582.625,23.1094 Z " fill="#000000"/><text fill="#000000" font-family="sans-serif" font-size="14" font-style="italic" lengthAdjust="spacing" textLength="109" x="601.75" y="27.8467">UnaryPredicate</text><line style="stroke:#181818;stroke-width:0.5;" x1="429" x2="851" y1="39" y2="39"/><line style="stroke:#181818;stroke-width:0.5;" x1="429" x2="851" y1="47" y2="47"/><ellipse cx="439" cy="58" fill="#84BE84" rx="3" ry="3" style="stroke:#038048;stroke-width:1.0;"/><text fill="#000000" font-family="sans-serif" font-size="14" font-style="italic" lengthAdjust="spacing" textLength="91" x="448" y="63.9951">Request&lt;E&gt;</text><text fill="#000000" font-family="sans-serif" font-size="14" lengthAdjust="spacing" textLength="307" x="539" y="63.9951">.computeAll(Term): Sequence&lt;Response&gt;</text></g><!--MD5=[534d042e5b1117877e2c9e5c358927c2]
class BinaryRelation--><g id="elem_BinaryRelation"><rect codeLine="25" fill="#F1F1F1" height="64.2969" id="BinaryRelation" rx="2.5" ry="2.5" style="stroke:#181818;stroke-width:0.5;" width="470" x="887" y="7"/><ellipse cx="1065.25" cy="23" fill="#A9DCDF" rx="11" ry="11" style="stroke:#181818;stroke-width:1.0;"/><path d="M1067.3281,24.8125 L1067.7188,25.7969 L1067.3281,25.7969 C1066.875,25.7969 1066.7656,25.8125 1066.6094,25.9219 C1066.3594,26.0781 1066.2031,26.3594 1066.2031,26.6563 C1066.2031,26.9219 1066.3438,27.1719 1066.5625,27.3281 C1066.7031,27.4531 1066.9063,27.5 1067.3281,27.5 L1069.6875,27.5 C1070.0469,27.5 1070.2656,27.4688 1070.4063,27.375 C1070.6563,27.2344 1070.8125,26.9375 1070.8125,26.6563 C1070.8125,26.375 1070.6719,26.125 1070.4531,25.9688 C1070.2813,25.8281 1070.125,25.7969 1069.6563,25.7969 L1066.2656,17.5938 L1062.5938,17.5938 C1062.1406,17.5938 1062.0156,17.6094 1061.8594,17.7031 C1061.6094,17.875 1061.4531,18.1563 1061.4531,18.4375 C1061.4531,18.7188 1061.5938,18.9688 1061.8125,19.1406 C1061.9844,19.25 1062.1563,19.2813 1062.5938,19.2813 L1063.6719,19.2813 L1061.0313,25.7969 C1060.6094,25.7969 1060.4531,25.8125 1060.2969,25.9219 C1060.0469,26.0781 1059.8906,26.3594 1059.8906,26.6563 C1059.8906,27.2188 1060.2656,27.5 1061.0156,27.5 L1063.2813,27.5 C1063.6406,27.5 1063.8594,27.4688 1063.9844,27.375 C1064.25,27.2344 1064.3906,26.9375 1064.3906,26.6563 C1064.3906,26.375 1064.2656,26.125 1064.0469,25.9531 C1063.875,25.8281 1063.7344,25.7969 1063.2813,25.7969 L1062.8906,25.7969 L1063.2813,24.8125 L1067.3281,24.8125 Z M1066.625,23.1094 L1063.9531,23.1094 L1065.2969,19.8438 L1066.625,23.1094 Z " fill="#000000"/><text fill="#000000" font-family="sans-serif" font-size="14" font-style="italic" lengthAdjust="spacing" textLength="105" x="1085.75" y="27.8467">BinaryRelation</text><line style="stroke:#181818;stroke-width:0.5;" x1="888" x2="1356" y1="39" y2="39"/><line style="stroke:#181818;stroke-width:0.5;" x1="888" x2="1356" y1="47" y2="47"/><ellipse cx="898" cy="58" fill="#84BE84" rx="3" ry="3" style="stroke:#038048;stroke-width:1.0;"/><text fill="#000000" font-family="sans-serif" font-size="14" font-style="italic" lengthAdjust="spacing" textLength="91" x="907" y="63.9951">Request&lt;E&gt;</text><text fill="#000000" font-family="sans-serif" font-size="14" lengthAdjust="spacing" textLength="353" x="998" y="63.9951">.computeAll(Term, Term): Sequence&lt;Response&gt;</text></g><!--MD5=[9764a3931923cd07a350a317b06f7704]
class TernaryRelation--><g id="elem_TernaryRelation"><rect codeLine="31" fill="#F1F1F1" height="64.2969" id="TernaryRelation" rx="2.5" ry="2.5" style="stroke:#181818;stroke-width:0.5;" width="516" x="1392" y="7"/><ellipse cx="1588.25" cy="23" fill="#A9DCDF" rx="11" ry="11" style="stroke:#181818;stroke-width:1.0;"/><path d="M1590.3281,24.8125 L1590.7188,25.7969 L1590.3281,25.7969 C1589.875,25.7969 1589.7656,25.8125 1589.6094,25.9219 C1589.3594,26.0781 1589.2031,26.3594 1589.2031,26.6563 C1589.2031,26.9219 1589.3438,27.1719 1589.5625,27.3281 C1589.7031,27.4531 1589.9063,27.5 1590.3281,27.5 L1592.6875,27.5 C1593.0469,27.5 1593.2656,27.4688 1593.4063,27.375 C1593.6563,27.2344 1593.8125,26.9375 1593.8125,26.6563 C1593.8125,26.375 1593.6719,26.125 1593.4531,25.9688 C1593.2813,25.8281 1593.125,25.7969 1592.6563,25.7969 L1589.2656,17.5938 L1585.5938,17.5938 C1585.1406,17.5938 1585.0156,17.6094 1584.8594,17.7031 C1584.6094,17.875 1584.4531,18.1563 1584.4531,18.4375 C1584.4531,18.7188 1584.5938,18.9688 1584.8125,19.1406 C1584.9844,19.25 1585.1563,19.2813 1585.5938,19.2813 L1586.6719,19.2813 L1584.0313,25.7969 C1583.6094,25.7969 1583.4531,25.8125 1583.2969,25.9219 C1583.0469,26.0781 1582.8906,26.3594 1582.8906,26.6563 C1582.8906,27.2188 1583.2656,27.5 1584.0156,27.5 L1586.2813,27.5 C1586.6406,27.5 1586.8594,27.4688 1586.9844,27.375 C1587.25,27.2344 1587.3906,26.9375 1587.3906,26.6563 C1587.3906,26.375 1587.2656,26.125 1587.0469,25.9531 C1586.875,25.8281 1586.7344,25.7969 1586.2813,25.7969 L1585.8906,25.7969 L1586.2813,24.8125 L1590.3281,24.8125 Z M1589.625,23.1094 L1586.9531,23.1094 L1588.2969,19.8438 L1589.625,23.1094 Z " fill="#000000"/><text fill="#000000" font-family="sans-serif" font-size="14" font-style="italic" lengthAdjust="spacing" textLength="115" x="1608.75" y="27.8467">TernaryRelation</text><line style="stroke:#181818;stroke-width:0.5;" x1="1393" x2="1907" y1="39" y2="39"/><line style="stroke:#181818;stroke-width:0.5;" x1="1393" x2="1907" y1="47" y2="47"/><ellipse cx="1403" cy="58" fill="#84BE84" rx="3" ry="3" style="stroke:#038048;stroke-width:1.0;"/><text fill="#000000" font-family="sans-serif" font-size="14" font-style="italic" lengthAdjust="spacing" textLength="91" x="1412" y="63.9951">Request&lt;E&gt;</text><text fill="#000000" font-family="sans-serif" font-size="14" lengthAdjust="spacing" textLength="399" x="1503" y="63.9951">.computeAll(Term, Term, Term): Sequence&lt;Response&gt;</text></g><!--MD5=[c5ca7fd366d7ea8cf339ad956a46c9bc]
class QuaternaryRelation--><g id="elem_QuaternaryRelation"><rect codeLine="37" fill="#F1F1F1" height="64.2969" id="QuaternaryRelation" rx="2.5" ry="2.5" style="stroke:#181818;stroke-width:0.5;" width="562" x="45" y="147.5"/><ellipse cx="251.75" cy="163.5" fill="#A9DCDF" rx="11" ry="11" style="stroke:#181818;stroke-width:1.0;"/><path d="M253.8281,165.3125 L254.2188,166.2969 L253.8281,166.2969 C253.375,166.2969 253.2656,166.3125 253.1094,166.4219 C252.8594,166.5781 252.7031,166.8594 252.7031,167.1563 C252.7031,167.4219 252.8438,167.6719 253.0625,167.8281 C253.2031,167.9531 253.4063,168 253.8281,168 L256.1875,168 C256.5469,168 256.7656,167.9688 256.9063,167.875 C257.1563,167.7344 257.3125,167.4375 257.3125,167.1563 C257.3125,166.875 257.1719,166.625 256.9531,166.4688 C256.7813,166.3281 256.625,166.2969 256.1563,166.2969 L252.7656,158.0938 L249.0938,158.0938 C248.6406,158.0938 248.5156,158.1094 248.3594,158.2031 C248.1094,158.375 247.9531,158.6563 247.9531,158.9375 C247.9531,159.2188 248.0938,159.4688 248.3125,159.6406 C248.4844,159.75 248.6563,159.7813 249.0938,159.7813 L250.1719,159.7813 L247.5313,166.2969 C247.1094,166.2969 246.9531,166.3125 246.7969,166.4219 C246.5469,166.5781 246.3906,166.8594 246.3906,167.1563 C246.3906,167.7188 246.7656,168 247.5156,168 L249.7813,168 C250.1406,168 250.3594,167.9688 250.4844,167.875 C250.75,167.7344 250.8906,167.4375 250.8906,167.1563 C250.8906,166.875 250.7656,166.625 250.5469,166.4531 C250.375,166.3281 250.2344,166.2969 249.7813,166.2969 L249.3906,166.2969 L249.7813,165.3125 L253.8281,165.3125 Z M253.125,163.6094 L250.4531,163.6094 L251.7969,160.3438 L253.125,163.6094 Z " fill="#000000"/><text fill="#000000" font-family="sans-serif" font-size="14" font-style="italic" lengthAdjust="spacing" textLength="140" x="272.25" y="168.3467">QuaternaryRelation</text><line style="stroke:#181818;stroke-width:0.5;" x1="46" x2="606" y1="179.5" y2="179.5"/><line style="stroke:#181818;stroke-width:0.5;" x1="46" x2="606" y1="187.5" y2="187.5"/><ellipse cx="56" cy="198.5" fill="#84BE84" rx="3" ry="3" style="stroke:#038048;stroke-width:1.0;"/><text fill="#000000" font-family="sans-serif" font-size="14" font-style="italic" lengthAdjust="spacing" textLength="91" x="65" y="204.4951">Request&lt;E&gt;</text><text fill="#000000" font-family="sans-serif" font-size="14" lengthAdjust="spacing" textLength="445" x="156" y="204.4951">.computeAll(Term, Term, Term, Term): Sequence&lt;Response&gt;</text></g><!--MD5=[ba59a656738599c5d808939cbb44fc8a]
class QuinaryRelation--><g id="elem_QuinaryRelation"><rect codeLine="43" fill="#F1F1F1" height="64.2969" id="QuinaryRelation" rx="2.5" ry="2.5" style="stroke:#181818;stroke-width:0.5;" width="608" x="1155" y="147.5"/><ellipse cx="1397.25" cy="163.5" fill="#A9DCDF" rx="11" ry="11" style="stroke:#181818;stroke-width:1.0;"/><path d="M1399.3281,165.3125 L1399.7188,166.2969 L1399.3281,166.2969 C1398.875,166.2969 1398.7656,166.3125 1398.6094,166.4219 C1398.3594,166.5781 1398.2031,166.8594 1398.2031,167.1563 C1398.2031,167.4219 1398.3438,167.6719 1398.5625,167.8281 C1398.7031,167.9531 1398.9063,168 1399.3281,168 L1401.6875,168 C1402.0469,168 1402.2656,167.9688 1402.4063,167.875 C1402.6563,167.7344 1402.8125,167.4375 1402.8125,167.1563 C1402.8125,166.875 1402.6719,166.625 1402.4531,166.4688 C1402.2813,166.3281 1402.125,166.2969 1401.6563,166.2969 L1398.2656,158.0938 L1394.5938,158.0938 C1394.1406,158.0938 1394.0156,158.1094 1393.8594,158.2031 C1393.6094,158.375 1393.4531,158.6563 1393.4531,158.9375 C1393.4531,159.2188 1393.5938,159.4688 1393.8125,159.6406 C1393.9844,159.75 1394.1563,159.7813 1394.5938,159.7813 L1395.6719,159.7813 L1393.0313,166.2969 C1392.6094,166.2969 1392.4531,166.3125 1392.2969,166.4219 C1392.0469,166.5781 1391.8906,166.8594 1391.8906,167.1563 C1391.8906,167.7188 1392.2656,168 1393.0156,168 L1395.2813,168 C1395.6406,168 1395.8594,167.9688 1395.9844,167.875 C1396.25,167.7344 1396.3906,167.4375 1396.3906,167.1563 C1396.3906,166.875 1396.2656,166.625 1396.0469,166.4531 C1395.875,166.3281 1395.7344,166.2969 1395.2813,166.2969 L1394.8906,166.2969 L1395.2813,165.3125 L1399.3281,165.3125 Z M1398.625,163.6094 L1395.9531,163.6094 L1397.2969,160.3438 L1398.625,163.6094 Z " fill="#000000"/><text fill="#000000" font-family="sans-serif" font-size="14" font-style="italic" lengthAdjust="spacing" textLength="115" x="1417.75" y="168.3467">QuinaryRelation</text><line style="stroke:#181818;stroke-width:0.5;" x1="1156" x2="1762" y1="179.5" y2="179.5"/><line style="stroke:#181818;stroke-width:0.5;" x1="1156" x2="1762" y1="187.5" y2="187.5"/><ellipse cx="1166" cy="198.5" fill="#84BE84" rx="3" ry="3" style="stroke:#038048;stroke-width:1.0;"/><text fill="#000000" font-family="sans-serif" font-size="14" font-style="italic" lengthAdjust="spacing" textLength="91" x="1175" y="204.4951">Request&lt;E&gt;</text><text fill="#000000" font-family="sans-serif" font-size="14" lengthAdjust="spacing" textLength="491" x="1266" y="204.4951">.computeAll(Term, Term, Term, Term, Term): Sequence&lt;Response&gt;</text></g><!--MD5=[3d52d39e7a4f79be985bf7124189695f]
link PrimitiveWrapper to Primitive--><g id="link_PrimitiveWrapper_Primitive"><path codeLine="11" d="M881,228.164 C881,247.882 881,270.1954 881,287.7722 " fill="none" id="PrimitiveWrapper-Primitive" style="stroke:#181818;stroke-width:1.0;stroke-dasharray:7.0,7.0;"/><text fill="#000000" font-family="sans-serif" font-size="13" lengthAdjust="spacing" textLength="8" x="872.4625" y="247.7942">1</text><text fill="#000000" font-family="sans-serif" font-size="13" lengthAdjust="spacing" textLength="8" x="872.2125" y="277.0015">1</text></g><!--MD5=[c6793a50843afa083a8ffc7e501ae49a]
link PredicateWitoutArguments to PrimitiveWrapper--><g id="link_PredicateWitoutArguments_PrimitiveWrapper"><path codeLine="17" d="M352.83,71.082 C433.747,87.539 535.227,108.178 627.554,126.955 " fill="none" id="PredicateWitoutArguments-to-PrimitiveWrapper" style="stroke:#181818;stroke-width:1.0;"/><polygon fill="none" points="629.208,120.148,647.412,130.993,626.418,133.867,629.208,120.148" style="stroke:#181818;stroke-width:1.0;"/></g><!--MD5=[b0b9fcd0017d28fc6f3a6c2f28c49614]
link UnaryPredicate to PrimitiveWrapper--><g id="link_UnaryPredicate_PrimitiveWrapper"><path codeLine="23" d="M694.085,71.082 C719.604,85.747 750.901,103.734 780.535,120.764 " fill="none" id="UnaryPredicate-to-PrimitiveWrapper" style="stroke:#181818;stroke-width:1.0;"/><polygon fill="none" points="784.366,114.892,798.218,130.926,777.39,127.03,784.366,114.892" style="stroke:#181818;stroke-width:1.0;"/></g><!--MD5=[be4beb31e2daab5833a981ea4d595282]
link BinaryRelation to PrimitiveWrapper--><g id="link_BinaryRelation_PrimitiveWrapper"><path codeLine="29" d="M1067.91,71.082 C1042.4,85.747 1011.1,103.734 981.465,120.764 " fill="none" id="BinaryRelation-to-PrimitiveWrapper" style="stroke:#181818;stroke-width:1.0;"/><polygon fill="none" points="984.61,127.03,963.782,130.926,977.634,114.892,984.61,127.03" style="stroke:#181818;stroke-width:1.0;"/></g><!--MD5=[bfb932b6da527b30363d7001a8649b2e]
link TernaryRelation to PrimitiveWrapper--><g id="link_TernaryRelation_PrimitiveWrapper"><path codeLine="35" d="M1473.71,71.025 C1379.98,87.594 1262.26,108.519 1139.75,130.692 " fill="none" id="TernaryRelation-to-PrimitiveWrapper" style="stroke:#181818;stroke-width:1.0;"/><polygon fill="none" points="1140.98,137.584,1120.05,134.261,1138.48,123.808,1140.98,137.584" style="stroke:#181818;stroke-width:1.0;"/></g><!--MD5=[1fcd3e357e7823b1cb395d844be8d513]
link QuaternaryRelation to PrimitiveWrapper--><g id="link_QuaternaryRelation_PrimitiveWrapper"><path codeLine="41" d="M607.023,179.5 C611.914,179.5 616.805,179.5 621.697,179.5 " fill="none" id="QuaternaryRelation-to-PrimitiveWrapper" style="stroke:#181818;stroke-width:1.0;"/><polygon fill="none" points="621.805,172.5,641.805,179.5,621.805,186.5,621.805,172.5" style="stroke:#181818;stroke-width:1.0;"/></g><!--MD5=[6ea1eeb8c1cb9ca2193d773d242246b8]
reverse link PrimitiveWrapper to QuinaryRelation--><g id="link_PrimitiveWrapper_QuinaryRelation"><path codeLine="47" d="M1140.14,179.5 C1145.03,179.5 1149.91,179.5 1154.8,179.5 " fill="none" id="PrimitiveWrapper-backto-QuinaryRelation" style="stroke:#181818;stroke-width:1.0;"/><polygon fill="none" points="1140.05,186.5,1120.05,179.5,1140.05,172.5,1140.05,186.5" style="stroke:#181818;stroke-width:1.0;"/></g><!--MD5=[11bb62d31264d15d602a6459bdb6e98e]
@startuml
interface Primitive<C : ExecutionContext> {
  + solve(Request<C>) -> //Sequence//<Response>
}

abstract class PrimitiveWrapper<C : ExecutionContext> {
  + signature: Signature
  + descriptionPair: Pair<Signature, Primitive>
  + wrappedImplementation(Request<C>): Sequence<Response>
}

PrimitiveWrapper "1" .. "1" Primitive

abstract class PredicateWitoutArguments {
  + //Request<E>//.computeAll(): Sequence<Response>
}

PredicateWitoutArguments - -|> PrimitiveWrapper

abstract class UnaryPredicate {
  + //Request<E>//.computeAll(Term): Sequence<Response>
}

UnaryPredicate - -|> PrimitiveWrapper

abstract class BinaryRelation {
  + //Request<E>//.computeAll(Term, Term): Sequence<Response>
}

BinaryRelation - -|> PrimitiveWrapper

abstract class TernaryRelation {
  + //Request<E>//.computeAll(Term, Term, Term): Sequence<Response>
}

TernaryRelation - -|> PrimitiveWrapper

abstract class QuaternaryRelation {
  + //Request<E>//.computeAll(Term, Term, Term, Term): Sequence<Response>
}

QuaternaryRelation -right-|> PrimitiveWrapper

abstract class QuinaryRelation {
  + //Request<E>//.computeAll(Term, Term, Term, Term, Term): Sequence<Response>
}

QuinaryRelation -left-|> PrimitiveWrapper
@enduml

PlantUML version 1.2022.3(Tue Mar 29 16:10:57 UTC 2022)
(GPL source distribution)
Java Runtime: Java(TM) SE Runtime Environment
JVM: Java HotSpot(TM) 64-Bit Server VM
Default Encoding: UTF-8
Language: en
Country: US
--></g></svg>