<?xml version="1.0" encoding="UTF-8" standalone="no"?>
<svg xmlns="http://www.w3.org/2000/svg" xmlns:xlink="http://www.w3.org/1999/xlink" contentScriptType="application/ecmascript" contentStyleType="text/css" height="354px" preserveAspectRatio="none" style="width:1576px;height:354px;" version="1.1" viewBox="0 0 1576 354" width="1576px" zoomAndPan="magnify"><defs><filter height="300%" id="flvpac01jx2xw" width="300%" x="-1" y="-1"><feGaussianBlur result="blurOut" stdDeviation="2.0"/><feColorMatrix in="blurOut" result="blurOut2" type="matrix" values="0 0 0 0 0 0 0 0 0 0 0 0 0 0 0 0 0 0 .4 0"/><feOffset dx="4.0" dy="4.0" in="blurOut2" result="blurOut3"/><feBlend in="SourceGraphic" in2="blurOut3" mode="normal"/></filter></defs><g><!--MD5=[204a995c784cbe6b3a7450752a2139a2]
class Primitive--><rect codeLine="1" fill="#FEFECE" filter="url(#flvpac01jx2xw)" height="66.7422" id="Primitive" style="stroke:#A80036;stroke-width:1.5;" width="308" x="569" y="274"/><ellipse cx="621.75" cy="292.9688" fill="#3495EB" rx="11" ry="11" style="stroke:#A80036;stroke-width:1.0;"/><path d="M622.1875,290.5 L624.0313,290.5 L624.0313,292.0938 C624.0313,292.4844 624.0625,292.6563 624.1563,292.7969 C624.3125,293.0469 624.5938,293.2031 624.8906,293.2031 C625.1563,293.2031 625.4063,293.0781 625.5781,292.8594 C625.7188,292.6875 625.7344,292.5625 625.7344,292.0938 L625.7344,288.8125 L616.9688,288.8125 L616.9688,292.0938 C616.9688,292.4844 617,292.6563 617.0781,292.7969 C617.2344,293.0625 617.5313,293.2031 617.8125,293.2031 C618.0938,293.2031 618.3438,293.0781 618.5156,292.8594 C618.625,292.6875 618.6563,292.5469 618.6563,292.0938 L618.6563,290.5 L620.4844,290.5 L620.4844,297.0156 L619.375,297.0156 C618.9375,297.0156 618.8125,297.0313 618.6563,297.1406 C618.4063,297.2969 618.25,297.5781 618.25,297.875 C618.25,298.125 618.3906,298.3906 618.6094,298.5469 C618.7656,298.6719 618.9844,298.7188 619.375,298.7188 L623.3125,298.7188 C623.6406,298.7188 623.9063,298.6719 624.0156,298.5938 C624.2813,298.4531 624.4219,298.1563 624.4219,297.875 C624.4219,297.5938 624.2969,297.3438 624.0625,297.1719 C623.9063,297.0469 623.7656,297.0156 623.3125,297.0156 L622.1875,297.0156 L622.1875,290.5 Z " fill="#000000"/><text fill="#000000" font-family="sans-serif" font-size="12" font-style="italic" lengthAdjust="spacing" textLength="67" x="640.25" y="290.1387">«typealias»</text><text fill="#000000" font-family="sans-serif" font-size="12" font-style="italic" lengthAdjust="spacing" textLength="52" x="647.75" y="304.1074">Primitive</text><rect fill="#FFFFFF" height="15.9688" style="stroke:#000000;stroke-width:1.0;stroke-dasharray:2.0,2.0;" width="129" x="751" y="271"/><text fill="#000000" font-family="sans-serif" font-size="12" font-style="italic" lengthAdjust="spacing" textLength="127" x="752" y="283.1387">C : ExecutionContext</text><line style="stroke:#A80036;stroke-width:1.5;" x1="570" x2="876" y1="311.9375" y2="311.9375"/><line style="stroke:#A80036;stroke-width:1.5;" x1="570" x2="876" y1="319.9375" y2="319.9375"/><text fill="#000000" font-family="sans-serif" font-size="11" font-weight="bold" lengthAdjust="spacing" textLength="61" x="575" y="334.1479">alias for:</text><text fill="#000000" font-family="sans-serif" font-size="11" lengthAdjust="spacing" textLength="98" x="640" y="334.1479">(Request&lt;C&gt;) -&gt;</text><text fill="#000000" font-family="sans-serif" font-size="11" font-style="italic" lengthAdjust="spacing" textLength="55" x="742" y="334.1479">Sequence</text><text fill="#000000" font-family="sans-serif" font-size="11" lengthAdjust="spacing" textLength="74" x="797" y="334.1479">&lt;Response&gt;</text><!--MD5=[d7a82913f67a02aa3d45e8bb53e90185]
class PrimitiveWrapper--><rect codeLine="5" fill="#FEFECE" filter="url(#flvpac01jx2xw)" height="86.4141" id="PrimitiveWrapper" style="stroke:#A80036;stroke-width:1.5;" width="386" x="530" y="128"/><ellipse cx="601.25" cy="144" fill="#A9DCDF" rx="11" ry="11" style="stroke:#A80036;stroke-width:1.0;"/><path d="M603.3281,145.8125 L603.7188,146.7969 L603.3281,146.7969 C602.875,146.7969 602.7656,146.8125 602.6094,146.9219 C602.3594,147.0781 602.2031,147.3594 602.2031,147.6563 C602.2031,147.9219 602.3438,148.1719 602.5625,148.3281 C602.7031,148.4531 602.9063,148.5 603.3281,148.5 L605.6875,148.5 C606.0469,148.5 606.2656,148.4688 606.4063,148.375 C606.6563,148.2344 606.8125,147.9375 606.8125,147.6563 C606.8125,147.375 606.6719,147.125 606.4531,146.9688 C606.2813,146.8281 606.125,146.7969 605.6563,146.7969 L602.2656,138.5938 L598.5938,138.5938 C598.1406,138.5938 598.0156,138.6094 597.8594,138.7031 C597.6094,138.875 597.4531,139.1563 597.4531,139.4375 C597.4531,139.7188 597.5938,139.9688 597.8125,140.1406 C597.9844,140.25 598.1563,140.2813 598.5938,140.2813 L599.6719,140.2813 L597.0313,146.7969 C596.6094,146.7969 596.4531,146.8125 596.2969,146.9219 C596.0469,147.0781 595.8906,147.3594 595.8906,147.6563 C595.8906,148.2188 596.2656,148.5 597.0156,148.5 L599.2813,148.5 C599.6406,148.5 599.8594,148.4688 599.9844,148.375 C600.25,148.2344 600.3906,147.9375 600.3906,147.6563 C600.3906,147.375 600.2656,147.125 600.0469,146.9531 C599.875,146.8281 599.7344,146.7969 599.2813,146.7969 L598.8906,146.7969 L599.2813,145.8125 L603.3281,145.8125 Z M602.625,144.1094 L599.9531,144.1094 L601.2969,140.8438 L602.625,144.1094 Z " fill="#000000"/><text fill="#000000" font-family="sans-serif" font-size="12" font-style="italic" lengthAdjust="spacing" textLength="104" x="621.75" y="148.1543">PrimitiveWrapper</text><rect fill="#FFFFFF" height="15.9688" style="stroke:#000000;stroke-width:1.0;stroke-dasharray:2.0,2.0;" width="129" x="790" y="125"/><text fill="#000000" font-family="sans-serif" font-size="12" font-style="italic" lengthAdjust="spacing" textLength="127" x="791" y="137.1387">C : ExecutionContext</text><line style="stroke:#A80036;stroke-width:1.5;" x1="531" x2="915" y1="160" y2="160"/><ellipse cx="541" cy="171" rx="3" ry="3" style="stroke:#038048;stroke-width:1.0;fill:none;"/><text fill="#000000" font-family="sans-serif" font-size="11" lengthAdjust="spacing" textLength="115" x="550" y="174.2104">signature: Signature</text><ellipse cx="541" cy="183.8047" rx="3" ry="3" style="stroke:#038048;stroke-width:1.0;fill:none;"/><text fill="#000000" font-family="sans-serif" font-size="11" lengthAdjust="spacing" textLength="238" x="550" y="187.0151">descriptionPair: Pair&lt;Signature, Primitive&gt;</text><line style="stroke:#A80036;stroke-width:1.5;" x1="531" x2="915" y1="193.6094" y2="193.6094"/><ellipse cx="541" cy="204.6094" fill="#84BE84" rx="3" ry="3" style="stroke:#038048;stroke-width:1.0;"/><text fill="#000000" font-family="sans-serif" font-size="11" lengthAdjust="spacing" textLength="360" x="550" y="207.8198">wrappedImplementation(Request&lt;C&gt;): Sequence&lt;Response&gt;</text><!--MD5=[039bd50a44dc6194fb4d2e76fa0c2d20]
class PredicateWitoutArguments--><rect codeLine="13" fill="#FEFECE" filter="url(#flvpac01jx2xw)" height="60.8047" id="PredicateWitoutArguments" style="stroke:#A80036;stroke-width:1.5;" width="312" x="7" y="7"/><ellipse cx="77.25" cy="23" fill="#A9DCDF" rx="11" ry="11" style="stroke:#A80036;stroke-width:1.0;"/><path d="M79.3281,24.8125 L79.7188,25.7969 L79.3281,25.7969 C78.875,25.7969 78.7656,25.8125 78.6094,25.9219 C78.3594,26.0781 78.2031,26.3594 78.2031,26.6563 C78.2031,26.9219 78.3438,27.1719 78.5625,27.3281 C78.7031,27.4531 78.9063,27.5 79.3281,27.5 L81.6875,27.5 C82.0469,27.5 82.2656,27.4688 82.4063,27.375 C82.6563,27.2344 82.8125,26.9375 82.8125,26.6563 C82.8125,26.375 82.6719,26.125 82.4531,25.9688 C82.2813,25.8281 82.125,25.7969 81.6563,25.7969 L78.2656,17.5938 L74.5938,17.5938 C74.1406,17.5938 74.0156,17.6094 73.8594,17.7031 C73.6094,17.875 73.4531,18.1563 73.4531,18.4375 C73.4531,18.7188 73.5938,18.9688 73.8125,19.1406 C73.9844,19.25 74.1563,19.2813 74.5938,19.2813 L75.6719,19.2813 L73.0313,25.7969 C72.6094,25.7969 72.4531,25.8125 72.2969,25.9219 C72.0469,26.0781 71.8906,26.3594 71.8906,26.6563 C71.8906,27.2188 72.2656,27.5 73.0156,27.5 L75.2813,27.5 C75.6406,27.5 75.8594,27.4688 75.9844,27.375 C76.25,27.2344 76.3906,26.9375 76.3906,26.6563 C76.3906,26.375 76.2656,26.125 76.0469,25.9531 C75.875,25.8281 75.7344,25.7969 75.2813,25.7969 L74.8906,25.7969 L75.2813,24.8125 L79.3281,24.8125 Z M78.625,23.1094 L75.9531,23.1094 L77.2969,19.8438 L78.625,23.1094 Z " fill="#000000"/><text fill="#000000" font-family="sans-serif" font-size="12" font-style="italic" lengthAdjust="spacing" textLength="163" x="97.75" y="27.1543">PredicateWitoutArguments</text><line style="stroke:#A80036;stroke-width:1.5;" x1="8" x2="318" y1="39" y2="39"/><line style="stroke:#A80036;stroke-width:1.5;" x1="8" x2="318" y1="47" y2="47"/><ellipse cx="18" cy="58" fill="#84BE84" rx="3" ry="3" style="stroke:#038048;stroke-width:1.0;"/><text fill="#000000" font-family="sans-serif" font-size="11" font-style="italic" lengthAdjust="spacing" textLength="71" x="27" y="61.2104">Request&lt;E&gt;</text><text fill="#000000" font-family="sans-serif" font-size="11" lengthAdjust="spacing" textLength="215" x="98" y="61.2104">.computeAll(): Sequence&lt;Response&gt;</text><!--MD5=[8e1e58185eca2dd70554585cd90beb2c]
class UnaryPredicate--><rect codeLine="19" fill="#FEFECE" filter="url(#flvpac01jx2xw)" height="60.8047" id="UnaryPredicate" style="stroke:#A80036;stroke-width:1.5;" width="342" x="354" y="7"/><ellipse cx="474.75" cy="23" fill="#A9DCDF" rx="11" ry="11" style="stroke:#A80036;stroke-width:1.0;"/><path d="M476.8281,24.8125 L477.2188,25.7969 L476.8281,25.7969 C476.375,25.7969 476.2656,25.8125 476.1094,25.9219 C475.8594,26.0781 475.7031,26.3594 475.7031,26.6563 C475.7031,26.9219 475.8438,27.1719 476.0625,27.3281 C476.2031,27.4531 476.4063,27.5 476.8281,27.5 L479.1875,27.5 C479.5469,27.5 479.7656,27.4688 479.9063,27.375 C480.1563,27.2344 480.3125,26.9375 480.3125,26.6563 C480.3125,26.375 480.1719,26.125 479.9531,25.9688 C479.7813,25.8281 479.625,25.7969 479.1563,25.7969 L475.7656,17.5938 L472.0938,17.5938 C471.6406,17.5938 471.5156,17.6094 471.3594,17.7031 C471.1094,17.875 470.9531,18.1563 470.9531,18.4375 C470.9531,18.7188 471.0938,18.9688 471.3125,19.1406 C471.4844,19.25 471.6563,19.2813 472.0938,19.2813 L473.1719,19.2813 L470.5313,25.7969 C470.1094,25.7969 469.9531,25.8125 469.7969,25.9219 C469.5469,26.0781 469.3906,26.3594 469.3906,26.6563 C469.3906,27.2188 469.7656,27.5 470.5156,27.5 L472.7813,27.5 C473.1406,27.5 473.3594,27.4688 473.4844,27.375 C473.75,27.2344 473.8906,26.9375 473.8906,26.6563 C473.8906,26.375 473.7656,26.125 473.5469,25.9531 C473.375,25.8281 473.2344,25.7969 472.7813,25.7969 L472.3906,25.7969 L472.7813,24.8125 L476.8281,24.8125 Z M476.125,23.1094 L473.4531,23.1094 L474.7969,19.8438 L476.125,23.1094 Z " fill="#000000"/><text fill="#000000" font-family="sans-serif" font-size="12" font-style="italic" lengthAdjust="spacing" textLength="92" x="495.25" y="27.1543">UnaryPredicate</text><line style="stroke:#A80036;stroke-width:1.5;" x1="355" x2="695" y1="39" y2="39"/><line style="stroke:#A80036;stroke-width:1.5;" x1="355" x2="695" y1="47" y2="47"/><ellipse cx="365" cy="58" fill="#84BE84" rx="3" ry="3" style="stroke:#038048;stroke-width:1.0;"/><text fill="#000000" font-family="sans-serif" font-size="11" font-style="italic" lengthAdjust="spacing" textLength="71" x="374" y="61.2104">Request&lt;E&gt;</text><text fill="#000000" font-family="sans-serif" font-size="11" lengthAdjust="spacing" textLength="245" x="445" y="61.2104">.computeAll(Term): Sequence&lt;Response&gt;</text><!--MD5=[534d042e5b1117877e2c9e5c358927c2]
class BinaryRelation--><rect codeLine="25" fill="#FEFECE" filter="url(#flvpac01jx2xw)" height="60.8047" id="BinaryRelation" style="stroke:#A80036;stroke-width:1.5;" width="379" x="731.5" y="7"/><ellipse cx="873.75" cy="23" fill="#A9DCDF" rx="11" ry="11" style="stroke:#A80036;stroke-width:1.0;"/><path d="M875.8281,24.8125 L876.2188,25.7969 L875.8281,25.7969 C875.375,25.7969 875.2656,25.8125 875.1094,25.9219 C874.8594,26.0781 874.7031,26.3594 874.7031,26.6563 C874.7031,26.9219 874.8438,27.1719 875.0625,27.3281 C875.2031,27.4531 875.4063,27.5 875.8281,27.5 L878.1875,27.5 C878.5469,27.5 878.7656,27.4688 878.9063,27.375 C879.1563,27.2344 879.3125,26.9375 879.3125,26.6563 C879.3125,26.375 879.1719,26.125 878.9531,25.9688 C878.7813,25.8281 878.625,25.7969 878.1563,25.7969 L874.7656,17.5938 L871.0938,17.5938 C870.6406,17.5938 870.5156,17.6094 870.3594,17.7031 C870.1094,17.875 869.9531,18.1563 869.9531,18.4375 C869.9531,18.7188 870.0938,18.9688 870.3125,19.1406 C870.4844,19.25 870.6563,19.2813 871.0938,19.2813 L872.1719,19.2813 L869.5313,25.7969 C869.1094,25.7969 868.9531,25.8125 868.7969,25.9219 C868.5469,26.0781 868.3906,26.3594 868.3906,26.6563 C868.3906,27.2188 868.7656,27.5 869.5156,27.5 L871.7813,27.5 C872.1406,27.5 872.3594,27.4688 872.4844,27.375 C872.75,27.2344 872.8906,26.9375 872.8906,26.6563 C872.8906,26.375 872.7656,26.125 872.5469,25.9531 C872.375,25.8281 872.2344,25.7969 871.7813,25.7969 L871.3906,25.7969 L871.7813,24.8125 L875.8281,24.8125 Z M875.125,23.1094 L872.4531,23.1094 L873.7969,19.8438 L875.125,23.1094 Z " fill="#000000"/><text fill="#000000" font-family="sans-serif" font-size="12" font-style="italic" lengthAdjust="spacing" textLength="86" x="894.25" y="27.1543">BinaryRelation</text><line style="stroke:#A80036;stroke-width:1.5;" x1="732.5" x2="1109.5" y1="39" y2="39"/><line style="stroke:#A80036;stroke-width:1.5;" x1="732.5" x2="1109.5" y1="47" y2="47"/><ellipse cx="742.5" cy="58" fill="#84BE84" rx="3" ry="3" style="stroke:#038048;stroke-width:1.0;"/><text fill="#000000" font-family="sans-serif" font-size="11" font-style="italic" lengthAdjust="spacing" textLength="71" x="751.5" y="61.2104">Request&lt;E&gt;</text><text fill="#000000" font-family="sans-serif" font-size="11" lengthAdjust="spacing" textLength="282" x="822.5" y="61.2104">.computeAll(Term, Term): Sequence&lt;Response&gt;</text><!--MD5=[9764a3931923cd07a350a317b06f7704]
class TernaryRelation--><rect codeLine="31" fill="#FEFECE" filter="url(#flvpac01jx2xw)" height="60.8047" id="TernaryRelation" style="stroke:#A80036;stroke-width:1.5;" width="416" x="1146" y="7"/><ellipse cx="1302.75" cy="23" fill="#A9DCDF" rx="11" ry="11" style="stroke:#A80036;stroke-width:1.0;"/><path d="M1304.8281,24.8125 L1305.2188,25.7969 L1304.8281,25.7969 C1304.375,25.7969 1304.2656,25.8125 1304.1094,25.9219 C1303.8594,26.0781 1303.7031,26.3594 1303.7031,26.6563 C1303.7031,26.9219 1303.8438,27.1719 1304.0625,27.3281 C1304.2031,27.4531 1304.4063,27.5 1304.8281,27.5 L1307.1875,27.5 C1307.5469,27.5 1307.7656,27.4688 1307.9063,27.375 C1308.1563,27.2344 1308.3125,26.9375 1308.3125,26.6563 C1308.3125,26.375 1308.1719,26.125 1307.9531,25.9688 C1307.7813,25.8281 1307.625,25.7969 1307.1563,25.7969 L1303.7656,17.5938 L1300.0938,17.5938 C1299.6406,17.5938 1299.5156,17.6094 1299.3594,17.7031 C1299.1094,17.875 1298.9531,18.1563 1298.9531,18.4375 C1298.9531,18.7188 1299.0938,18.9688 1299.3125,19.1406 C1299.4844,19.25 1299.6563,19.2813 1300.0938,19.2813 L1301.1719,19.2813 L1298.5313,25.7969 C1298.1094,25.7969 1297.9531,25.8125 1297.7969,25.9219 C1297.5469,26.0781 1297.3906,26.3594 1297.3906,26.6563 C1297.3906,27.2188 1297.7656,27.5 1298.5156,27.5 L1300.7813,27.5 C1301.1406,27.5 1301.3594,27.4688 1301.4844,27.375 C1301.75,27.2344 1301.8906,26.9375 1301.8906,26.6563 C1301.8906,26.375 1301.7656,26.125 1301.5469,25.9531 C1301.375,25.8281 1301.2344,25.7969 1300.7813,25.7969 L1300.3906,25.7969 L1300.7813,24.8125 L1304.8281,24.8125 Z M1304.125,23.1094 L1301.4531,23.1094 L1302.7969,19.8438 L1304.125,23.1094 Z " fill="#000000"/><text fill="#000000" font-family="sans-serif" font-size="12" font-style="italic" lengthAdjust="spacing" textLength="94" x="1323.25" y="27.1543">TernaryRelation</text><line style="stroke:#A80036;stroke-width:1.5;" x1="1147" x2="1561" y1="39" y2="39"/><line style="stroke:#A80036;stroke-width:1.5;" x1="1147" x2="1561" y1="47" y2="47"/><ellipse cx="1157" cy="58" fill="#84BE84" rx="3" ry="3" style="stroke:#038048;stroke-width:1.0;"/><text fill="#000000" font-family="sans-serif" font-size="11" font-style="italic" lengthAdjust="spacing" textLength="71" x="1166" y="61.2104">Request&lt;E&gt;</text><text fill="#000000" font-family="sans-serif" font-size="11" lengthAdjust="spacing" textLength="319" x="1237" y="61.2104">.computeAll(Term, Term, Term): Sequence&lt;Response&gt;</text><!--MD5=[c5ca7fd366d7ea8cf339ad956a46c9bc]
class QuaternaryRelation--><rect codeLine="37" fill="#FEFECE" filter="url(#flvpac01jx2xw)" height="60.8047" id="QuaternaryRelation" style="stroke:#A80036;stroke-width:1.5;" width="453" x="41.5" y="140.5"/><ellipse cx="205.75" cy="156.5" fill="#A9DCDF" rx="11" ry="11" style="stroke:#A80036;stroke-width:1.0;"/><path d="M207.8281,158.3125 L208.2188,159.2969 L207.8281,159.2969 C207.375,159.2969 207.2656,159.3125 207.1094,159.4219 C206.8594,159.5781 206.7031,159.8594 206.7031,160.1563 C206.7031,160.4219 206.8438,160.6719 207.0625,160.8281 C207.2031,160.9531 207.4063,161 207.8281,161 L210.1875,161 C210.5469,161 210.7656,160.9688 210.9063,160.875 C211.1563,160.7344 211.3125,160.4375 211.3125,160.1563 C211.3125,159.875 211.1719,159.625 210.9531,159.4688 C210.7813,159.3281 210.625,159.2969 210.1563,159.2969 L206.7656,151.0938 L203.0938,151.0938 C202.6406,151.0938 202.5156,151.1094 202.3594,151.2031 C202.1094,151.375 201.9531,151.6563 201.9531,151.9375 C201.9531,152.2188 202.0938,152.4688 202.3125,152.6406 C202.4844,152.75 202.6563,152.7813 203.0938,152.7813 L204.1719,152.7813 L201.5313,159.2969 C201.1094,159.2969 200.9531,159.3125 200.7969,159.4219 C200.5469,159.5781 200.3906,159.8594 200.3906,160.1563 C200.3906,160.7188 200.7656,161 201.5156,161 L203.7813,161 C204.1406,161 204.3594,160.9688 204.4844,160.875 C204.75,160.7344 204.8906,160.4375 204.8906,160.1563 C204.8906,159.875 204.7656,159.625 204.5469,159.4531 C204.375,159.3281 204.2344,159.2969 203.7813,159.2969 L203.3906,159.2969 L203.7813,158.3125 L207.8281,158.3125 Z M207.125,156.6094 L204.4531,156.6094 L205.7969,153.3438 L207.125,156.6094 Z " fill="#000000"/><text fill="#000000" font-family="sans-serif" font-size="12" font-style="italic" lengthAdjust="spacing" textLength="116" x="226.25" y="160.6543">QuaternaryRelation</text><line style="stroke:#A80036;stroke-width:1.5;" x1="42.5" x2="493.5" y1="172.5" y2="172.5"/><line style="stroke:#A80036;stroke-width:1.5;" x1="42.5" x2="493.5" y1="180.5" y2="180.5"/><ellipse cx="52.5" cy="191.5" fill="#84BE84" rx="3" ry="3" style="stroke:#038048;stroke-width:1.0;"/><text fill="#000000" font-family="sans-serif" font-size="11" font-style="italic" lengthAdjust="spacing" textLength="71" x="61.5" y="194.7104">Request&lt;E&gt;</text><text fill="#000000" font-family="sans-serif" font-size="11" lengthAdjust="spacing" textLength="356" x="132.5" y="194.7104">.computeAll(Term, Term, Term, Term): Sequence&lt;Response&gt;</text><!--MD5=[ba59a656738599c5d808939cbb44fc8a]
class QuinaryRelation--><rect codeLine="43" fill="#FEFECE" filter="url(#flvpac01jx2xw)" height="60.8047" id="QuinaryRelation" style="stroke:#A80036;stroke-width:1.5;" width="490" x="951" y="140.5"/><ellipse cx="1144.25" cy="156.5" fill="#A9DCDF" rx="11" ry="11" style="stroke:#A80036;stroke-width:1.0;"/><path d="M1146.3281,158.3125 L1146.7188,159.2969 L1146.3281,159.2969 C1145.875,159.2969 1145.7656,159.3125 1145.6094,159.4219 C1145.3594,159.5781 1145.2031,159.8594 1145.2031,160.1563 C1145.2031,160.4219 1145.3438,160.6719 1145.5625,160.8281 C1145.7031,160.9531 1145.9063,161 1146.3281,161 L1148.6875,161 C1149.0469,161 1149.2656,160.9688 1149.4063,160.875 C1149.6563,160.7344 1149.8125,160.4375 1149.8125,160.1563 C1149.8125,159.875 1149.6719,159.625 1149.4531,159.4688 C1149.2813,159.3281 1149.125,159.2969 1148.6563,159.2969 L1145.2656,151.0938 L1141.5938,151.0938 C1141.1406,151.0938 1141.0156,151.1094 1140.8594,151.2031 C1140.6094,151.375 1140.4531,151.6563 1140.4531,151.9375 C1140.4531,152.2188 1140.5938,152.4688 1140.8125,152.6406 C1140.9844,152.75 1141.1563,152.7813 1141.5938,152.7813 L1142.6719,152.7813 L1140.0313,159.2969 C1139.6094,159.2969 1139.4531,159.3125 1139.2969,159.4219 C1139.0469,159.5781 1138.8906,159.8594 1138.8906,160.1563 C1138.8906,160.7188 1139.2656,161 1140.0156,161 L1142.2813,161 C1142.6406,161 1142.8594,160.9688 1142.9844,160.875 C1143.25,160.7344 1143.3906,160.4375 1143.3906,160.1563 C1143.3906,159.875 1143.2656,159.625 1143.0469,159.4531 C1142.875,159.3281 1142.7344,159.2969 1142.2813,159.2969 L1141.8906,159.2969 L1142.2813,158.3125 L1146.3281,158.3125 Z M1145.625,156.6094 L1142.9531,156.6094 L1144.2969,153.3438 L1145.625,156.6094 Z " fill="#000000"/><text fill="#000000" font-family="sans-serif" font-size="12" font-style="italic" lengthAdjust="spacing" textLength="95" x="1164.75" y="160.6543">QuinaryRelation</text><line style="stroke:#A80036;stroke-width:1.5;" x1="952" x2="1440" y1="172.5" y2="172.5"/><line style="stroke:#A80036;stroke-width:1.5;" x1="952" x2="1440" y1="180.5" y2="180.5"/><ellipse cx="962" cy="191.5" fill="#84BE84" rx="3" ry="3" style="stroke:#038048;stroke-width:1.0;"/><text fill="#000000" font-family="sans-serif" font-size="11" font-style="italic" lengthAdjust="spacing" textLength="71" x="971" y="194.7104">Request&lt;E&gt;</text><text fill="#000000" font-family="sans-serif" font-size="11" lengthAdjust="spacing" textLength="393" x="1042" y="194.7104">.computeAll(Term, Term, Term, Term, Term): Sequence&lt;Response&gt;</text><!--MD5=[3d52d39e7a4f79be985bf7124189695f]
link PrimitiveWrapper to Primitive--><path codeLine="11" d="M723,214.188 C723,233.448 723,255.908 723,273.8515 " fill="none" id="PrimitiveWrapper-Primitive" style="stroke:#A80036;stroke-width:1.0;stroke-dasharray:7.0,7.0;"/><text fill="#000000" font-family="sans-serif" font-size="13" lengthAdjust="spacing" textLength="8" x="714.3375" y="234.6268">1</text><text fill="#000000" font-family="sans-serif" font-size="13" lengthAdjust="spacing" textLength="8" x="714.2125" y="262.8557">1</text><!--MD5=[c6793a50843afa083a8ffc7e501ae49a]
link PredicateWitoutArguments to PrimitiveWrapper--><path codeLine="17" d="M288.675,68.011 C358.09,84.311 445.908,104.933 524.384,123.361 " fill="none" id="PredicateWitoutArguments-to-PrimitiveWrapper" style="stroke:#A80036;stroke-width:1.0;"/><polygon fill="none" points="526.248,116.608,544.118,127.995,523.047,130.237,526.248,116.608" style="stroke:#A80036;stroke-width:1.0;"/><!--MD5=[b0b9fcd0017d28fc6f3a6c2f28c49614]
link UnaryPredicate to PrimitiveWrapper--><path codeLine="23" d="M569.435,68.011 C591.02,82.347 617.638,100.024 642.615,116.613 " fill="none" id="UnaryPredicate-to-PrimitiveWrapper" style="stroke:#A80036;stroke-width:1.0;"/><polygon fill="none" points="646.776,110.973,659.563,127.869,639.03,122.635,646.776,110.973" style="stroke:#A80036;stroke-width:1.0;"/><!--MD5=[be4beb31e2daab5833a981ea4d595282]
link BinaryRelation to PrimitiveWrapper--><path codeLine="29" d="M876.565,68.011 C854.98,82.347 828.362,100.024 803.385,116.613 " fill="none" id="BinaryRelation-to-PrimitiveWrapper" style="stroke:#A80036;stroke-width:1.0;"/><polygon fill="none" points="806.97,122.635,786.437,127.869,799.224,110.973,806.97,122.635" style="stroke:#A80036;stroke-width:1.0;"/><!--MD5=[bfb932b6da527b30363d7001a8649b2e]
link TernaryRelation to PrimitiveWrapper--><path codeLine="35" d="M1212.39,68.011 C1130.98,84.978 1027.1,106.626 936.005,125.61 " fill="none" id="TernaryRelation-to-PrimitiveWrapper" style="stroke:#A80036;stroke-width:1.0;"/><polygon fill="none" points="937.182,132.515,916.174,129.743,934.325,118.809,937.182,132.515" style="stroke:#A80036;stroke-width:1.0;"/><!--MD5=[1fcd3e357e7823b1cb395d844be8d513]
link QuaternaryRelation to PrimitiveWrapper--><path codeLine="41" d="M494.611,171 C499.659,171 504.706,171 509.753,171 " fill="none" id="QuaternaryRelation-to-PrimitiveWrapper" style="stroke:#A80036;stroke-width:1.0;"/><polygon fill="none" points="509.851,164,529.851,171,509.851,178,509.851,164" style="stroke:#A80036;stroke-width:1.0;"/><!--MD5=[6ea1eeb8c1cb9ca2193d773d242246b8]
reverse link PrimitiveWrapper to QuinaryRelation--><path codeLine="47" d="M936.151,171 C941.033,171 945.915,171 950.797,171 " fill="none" id="PrimitiveWrapper-backto-QuinaryRelation" style="stroke:#A80036;stroke-width:1.0;"/><polygon fill="none" points="936.08,178,916.08,171,936.08,164,936.08,178" style="stroke:#A80036;stroke-width:1.0;"/><!--MD5=[2928e2db1e70145266a73ef42a09a05e]
@startuml
interface Primitive<C : ExecutionContext> << (T,#3495eb) typealias >>  {
  **alias for:** (Request<C>) -> //Sequence//<Response>
}

abstract class PrimitiveWrapper<C : ExecutionContext> {
  + signature: Signature
  + descriptionPair: Pair<Signature, Primitive>
  + wrappedImplementation(Request<C>): Sequence<Response>
}

PrimitiveWrapper "1" .. "1" Primitive

abstract class PredicateWitoutArguments {
  + //Request<E>//.computeAll(): Sequence<Response>
}

PredicateWitoutArguments - -|> PrimitiveWrapper

abstract class UnaryPredicate {
  + //Request<E>//.computeAll(Term): Sequence<Response>
}

UnaryPredicate - -|> PrimitiveWrapper

abstract class BinaryRelation {
  + //Request<E>//.computeAll(Term, Term): Sequence<Response>
}

BinaryRelation - -|> PrimitiveWrapper

abstract class TernaryRelation {
  + //Request<E>//.computeAll(Term, Term, Term): Sequence<Response>
}

TernaryRelation - -|> PrimitiveWrapper

abstract class QuaternaryRelation {
  + //Request<E>//.computeAll(Term, Term, Term, Term): Sequence<Response>
}

QuaternaryRelation -right-|> PrimitiveWrapper

abstract class QuinaryRelation {
  + //Request<E>//.computeAll(Term, Term, Term, Term, Term): Sequence<Response>
}

QuinaryRelation -left-|> PrimitiveWrapper
@enduml

PlantUML version 1.2021.5(Sun Apr 25 11:20:28 UTC 2021)
(GPL source distribution)
Java Runtime: Java(TM) SE Runtime Environment
JVM: Java HotSpot(TM) 64-Bit Server VM
Default Encoding: UTF-8
Language: en
Country: US
--></g></svg>